<svg version="1.1" id="Layer_1" xmlns="http://www.w3.org/2000/svg" xmlns:xlink="http://www.w3.org/1999/xlink" x="0px" y="0px"
	 width="100%" viewBox="0 0 50 50" enable-background="new 0 0 50 50" xml:space="preserve">
<path fill="#FEFFFE" opacity="1.000000" stroke="none" 
	d="
M25.000057,51.000000 
	C16.686367,51.000000 8.872664,51.000000 1.029481,51.000000 
	C1.029481,34.394798 1.029481,17.789536 1.029481,1.092135 
	C17.563019,1.092135 34.126720,1.092135 50.845211,1.092135 
	C50.845211,17.665548 50.845211,34.332619 50.845211,51.000000 
	C42.457439,51.000000 33.978741,51.000000 25.000057,51.000000 
M9.147832,13.199547 
	C9.145278,21.010035 9.197712,28.821083 9.117735,36.630779 
	C9.075669,40.738358 10.838766,42.830849 15.051307,42.806602 
	C22.861540,42.761639 30.673870,42.873371 38.481056,42.712559 
	C39.766727,42.686081 41.642075,41.899204 42.117268,40.917770 
	C42.520390,40.085182 41.618366,38.151993 40.739502,37.240078 
	C32.240124,28.421062 23.671318,19.667208 15.009166,11.007957 
	C12.648015,8.647596 10.320260,8.419954 9.147832,13.199547 
M36.991585,27.367136 
	C37.478371,28.110113 37.965157,28.853090 39.042183,30.496948 
	C40.207581,23.458483 41.205097,17.433937 42.313519,10.739595 
	C35.286953,12.034590 29.414179,13.116941 23.541405,14.199292 
	C26.206562,16.415632 29.457199,17.154106 31.687527,19.076393 
	C33.910488,20.992327 35.110176,24.095514 36.991585,27.367136 
z"/>
<path fill="#87E6AB" opacity="1.000000" stroke="none" 
	d="
M9.172548,12.780513 
	C10.320260,8.419954 12.648015,8.647596 15.009166,11.007957 
	C23.671318,19.667208 32.240124,28.421062 40.739502,37.240078 
	C41.618366,38.151993 42.520390,40.085182 42.117268,40.917770 
	C41.642075,41.899204 39.766727,42.686081 38.481056,42.712559 
	C30.673870,42.873371 22.861540,42.761639 15.051307,42.806602 
	C10.838766,42.830849 9.075669,40.738358 9.117735,36.630779 
	C9.197712,28.821083 9.145278,21.010035 9.172548,12.780513 
M20.503996,36.080280 
	C22.884756,36.080280 25.265516,36.080280 26.628963,36.080280 
	C23.018929,32.474682 19.363079,28.823320 15.868875,25.333406 
	C15.868875,27.372120 15.979869,30.161543 15.838108,32.938061 
	C15.692113,35.797501 17.316568,36.254753 20.503996,36.080280 
z"/>
<path fill="#85E5A9" opacity="1.000000" stroke="none" 
	d="
M36.875046,27.022646 
	C35.110176,24.095514 33.910488,20.992327 31.687527,19.076393 
	C29.457199,17.154106 26.206562,16.415632 23.541405,14.199292 
	C29.414179,13.116941 35.286953,12.034590 42.313519,10.739595 
	C41.205097,17.433937 40.207581,23.458483 39.042183,30.496948 
	C37.965157,28.853090 37.478371,28.110113 36.875046,27.022646 
z"/>
<path fill="#FDFFFD" opacity="1.000000" stroke="none" 
	d="
M20.046036,36.079414 
	C17.316568,36.254753 15.692113,35.797501 15.838108,32.938061 
	C15.979869,30.161543 15.868875,27.372120 15.868875,25.333406 
	C19.363079,28.823320 23.018929,32.474682 26.628963,36.080280 
	C25.265516,36.080280 22.884756,36.080280 20.046036,36.079414 
z"/>
</svg>
